<?xml version="1.0" encoding="UTF-8" standalone="no"?>
<svg
   version="1.1"
   width="200"
   height="200"
   id="svg545"
   xmlns="http://www.w3.org/2000/svg"
   xmlns:svg="http://www.w3.org/2000/svg">
  <defs
     id="defs549" />
  <path
     d="m 136.4375,32.8125 c 0.94746,-0.01418 1.89492,-0.02836 2.87109,-0.04297 2.91435,0.24956 4.32692,0.519261 6.69141,2.230469 1.92969,2.757812 1.92969,2.757812 3.875,6.125 3.08705,5.226173 6.38945,10.095549 10.125,14.875 0.98031,1.33249 1.95946,2.66584 2.9375,4 3.93607,5.244654 8.14477,10.207343 12.9375,14.6875 2.35623,2.564129 3.125,3.836413 3.125,7.3125 -1.0625,2.3125 -1.0625,2.3125 -3,4 -2.875,0.625 -2.875,0.625 -6,0 -3.97649,-4.187806 -6.62661,-8.672879 -9.3125,-13.75 C 155.73095,63.182584 150.23545,55.36376 142,49 141.29875,48.21625 140.5975,47.4325 139.875,46.625 139.25625,46.08875 138.6375,45.5525 138,45 c -4.54085,0.560105 -6.9219,3.587575 -9.9375,6.75 -0.5124,0.525938 -1.0248,1.051875 -1.55273,1.59375 -1.0186,1.045778 -2.03427,2.094417 -3.04688,3.145996 -1.37736,1.421959 -2.77689,2.82236 -4.17773,4.221191 C 114.51288,65.491373 111.54308,69.748271 109,76 c -4.3661,8.366102 -4.3661,8.366102 -6,10 -2.875,0.3125 -2.875,0.3125 -6,0 -1.9375,-1.6875 -1.9375,-1.6875 -3,-4 0,-2.5 0,-2.5 1,-5 0.746367,-0.564609 1.492734,-1.129219 2.261719,-1.710938 3.322091,-2.777101 5.266711,-5.777863 7.550781,-9.414062 2.95659,-4.583599 5.95218,-8.979698 9.4375,-13.1875 3.25536,-3.93137 5.8572,-7.998732 8.32813,-12.460938 3.70691,-5.804787 7.09619,-7.368179 13.85937,-7.414062 z"
     fill="#920908"
     id="path311" />
  <path
     d="m 141.63672,110.53125 c 3.84688,0.76302 5.13311,2.28279 7.36328,5.46875 0.71944,1.55742 1.42664,3.12052 2.125,4.6875 2.63601,5.63185 6.55513,8.93253 11.22266,12.92969 3.47322,3.12027 5.99671,6.57613 8.65234,10.38281 2.39689,3.0631 4.86451,5.87682 7.75,8.5 2.6588,2.95422 3.33439,4.53372 3.25,8.5 -1.625,2.4375 -1.625,2.4375 -4,4 -2.83103,-0.0691 -4.37861,-0.56273 -6.6875,-2.1875 C 170,161 170,161 169.1875,158.375 165.73724,148.569 156.89415,137.57167 149.34448,130.43506 148,129 148,129 148,127 c -0.63937,-0.30938 -1.27875,-0.61875 -1.9375,-0.9375 C 144,125 144,125 143,124 c -3.28743,-0.66924 -3.28743,-0.66924 -7,0 -4.67665,3.65179 -7.70669,9.48807 -11.01172,14.33203 -2.1701,2.91194 -4.54813,5.47525 -7.05078,8.10547 -4.16834,4.45385 -7.08708,8.88883 -9.78125,14.34766 C 107,163 107,163 105,165 c -3,-0.1875 -3,-0.1875 -5.999999,-1 -2.161021,-3.24153 -2.642475,-4.23693 -2,-8 1.617363,-1.39273 3.292499,-2.71938 4.999999,-4 1.34862,-1.98972 2.67928,-3.99165 4,-6 2.27806,-2.9789 4.65156,-5.88296 7.02149,-8.78906 2.23815,-2.79539 4.02092,-5.29596 5.63085,-8.52344 1.75209,-3.49401 4.13314,-4.54449 7.34766,-6.6875 1.05009,-1.97416 2.04988,-3.97583 3,-6 3.6164,-5.04104 6.69009,-5.82114 12.63672,-5.46875 z"
     fill="#770807"
     id="path313" />
  <path
     d="m 21.1875,111.25 c 4.295088,0.84494 4.627329,1.18847 7.0625,4.5625 1.294571,2.04607 2.534584,4.09535 3.75,6.1875 0.651379,1.10964 0.651379,1.10964 1.315918,2.2417 2.405506,4.10718 4.782023,8.22924 7.133301,12.36767 C 44.693277,143.9847 48.422422,149.97179 56.75,153 c 2.287344,0.24007 2.287344,0.24007 3.75,-1.25 0.495,-0.5775 0.99,-1.155 1.5,-1.75 0.7425,-0.40992 1.485,-0.81984 2.25,-1.24219 3.296621,-2.10721 5.693662,-4.71844 8.25,-7.63281 0.92595,-1.04007 1.853025,-2.07915 2.78125,-3.11719 0.450125,-0.50402 0.900249,-1.00804 1.364014,-1.52734 C 78.690021,134.24594 80.842212,132.1247 83,130 c 0.721875,-0.7425 1.44375,-1.485 2.1875,-2.25 C 87,126 87,126 89,125 c -0.160488,-0.90492 -0.160488,-0.90492 -0.324219,-1.82812 -0.96472,-6.43147 -0.96472,-6.43147 0.324219,-9.73438 2.994826,-2.15253 5.41471,-1.76344 9,-1.4375 0.99,0.495 0.99,0.495 2,1 0.48756,6.33831 0.48756,6.33831 -1.75,9.375 C 96,124 96,124 93.96875,124.31641 c -2.167123,0.49389 -2.167123,0.49389 -2.953125,2.6875 -0.378984,1.2665 -0.378984,1.2665 -0.765625,2.55859 -1.825894,5.03547 -4.211522,7.72307 -8.097656,11.3125 -5.891446,5.8166 -10.355104,12.97744 -14.046875,20.34766 C 67,163 67,163 64,165 c -2.636719,0.44141 -2.636719,0.44141 -5.6875,0.5625 -0.993867,0.0632 -1.987734,0.12633 -3.011719,0.19141 C 46.426736,163.72705 41.60067,154.97032 37.0625,147.75 31.661795,139.39846 26.150178,131.51458 19.34375,124.22656 16.995719,121.65677 16.034905,120.2593 15.5625,116.75 c 0.641656,-4.03327 1.695968,-4.57552 5.625,-5.5 z"
     fill="#600403"
     id="path315" />
  <path
     d="M 26.9375,33.6875 C 30,34 30,34 31.675293,34.999756 c 2.117422,3.197205 1.670039,6.615028 1.582519,10.31665 -0.0066,0.812266 -0.01323,1.624531 -0.02005,2.461411 -0.02341,2.595279 -0.06713,5.189707 -0.112763,7.784683 -0.03504,2.598444 -0.06583,5.19684 -0.09134,7.795395 -0.017,1.617154 -0.04017,3.234258 -0.07001,4.851227 C 32.808544,72.233636 32.808544,72.233636 34,76 c 0.607214,-0.01919 1.214428,-0.03838 1.840042,-0.05815 6.309642,-0.196399 12.619618,-0.371402 18.930222,-0.53389 2.356274,-0.0635 4.712408,-0.132485 7.068359,-0.207031 3.383,-0.106097 6.766013,-0.192564 10.149658,-0.275147 1.584497,-0.05604 1.584497,-0.05604 3.201004,-0.113205 0.980791,-0.02025 1.961581,-0.04049 2.972092,-0.06135 0.863818,-0.02443 1.727636,-0.04885 2.61763,-0.07402 C 83,75.000006 83,75.000006 84.814133,76.324148 86,78 86,78 85.8125,81.0625 85,84 85,84 83,86 c -2.212219,0.236191 -2.212219,0.236191 -4.99707,0.2146 -1.041583,-0.004 -2.083166,-0.0081 -3.156311,-0.01222 -1.130166,-0.01651 -2.260331,-0.03302 -3.424744,-0.05003 -1.15933,-0.01317 -2.318661,-0.02633 -3.513123,-0.0399 -2.458108,-0.03248 -4.916145,-0.0707 -7.374084,-0.114151 -3.75522,-0.06032 -7.509523,-0.08376 -11.265137,-0.105713 -2.386754,-0.03613 -4.773476,-0.07447 -7.160156,-0.115234 -1.122068,-0.0023 -2.244137,-0.0047 -3.400208,-0.0071 -8.717454,-0.215821 -8.717454,-0.215821 -12.341003,-3.068836 -3.956434,-4.51319 -4.620704,-7.023729 -4.598633,-13.04126 0.0019,-1.227832 0.0039,-2.455664 0.0059,-3.720703 0.01225,-1.279394 0.02449,-2.558789 0.03711,-3.876953 6.45e-4,-1.275527 0.0013,-2.551055 0.002,-3.865234 0.0453,-9.597628 0.0453,-9.597628 0.821045,-12.914307 C 23.308478,42.72719 23.308478,42.72719 21,40 c 0.494754,-4.081719 1.685819,-5.860193 5.9375,-6.3125 z"
     fill="#721312"
     id="path317" />
  <path
     d="m 21.1875,111.25 c 4.295088,0.84494 4.627329,1.18847 7.0625,4.5625 1.294571,2.04607 2.534584,4.09535 3.75,6.1875 0.651379,1.10964 0.651379,1.10964 1.315918,2.2417 2.405506,4.10718 4.782023,8.22924 7.133301,12.36767 4.043149,7.43529 4.043149,7.43529 10.113281,13.14063 0.578789,0.38672 1.157578,0.77344 1.753906,1.17187 0.833379,0.53368 0.833379,0.53368 1.683594,1.07813 0.99,0.66 1.98,1.32 3,2 -0.804375,0.28875 -1.60875,0.5775 -2.4375,0.875 -2.695147,0.85763 -2.695147,0.85763 -3.5625,3.125 0.99,0.33 1.98,0.66 3,1 -0.99,0.66 -1.98,1.32 -3,2 0,-0.66 0,-1.32 0,-2 -0.99,0 -1.98,0 -3,0 -0.33,-0.99 -0.66,-1.98 -1,-3 -0.66,0.99 -1.32,1.98 -2,3 -3.966401,-5.29574 -7.794118,-10.60048 -11.275391,-16.22485 -4.017206,-6.48515 -8.379872,-12.0585 -13.658203,-17.56812 -2.612343,-2.79012 -4.000565,-4.40048 -4.316406,-8.26953 0.358781,-4.21568 1.382809,-4.73346 5.4375,-5.6875 z"
     fill="#c72809"
     id="path319" />
  <path
     d="m 75.298828,74.867676 c 0.979043,-0.02723 1.958086,-0.05446 2.966797,-0.08252 0.848525,-0.03086 1.697051,-0.06171 2.571289,-0.09351 C 83,75 83,75 84.807617,76.322022 86,78 86,78 85.8125,81.0625 85,84 85,84 83,86 c -2.176666,0.202545 -2.176666,0.202545 -4.908692,0.135254 -1.020907,-0.02017 -2.041814,-0.04034 -3.093658,-0.06113 -1.65786,-0.04829 -1.65786,-0.04829 -3.349213,-0.09756 -1.129168,-0.02503 -2.258336,-0.05005 -3.421722,-0.07584 C 64.609179,85.818344 60.992175,85.721826 57.375,85.624997 54.927105,85.566777 52.479188,85.509472 50.03125,85.453122 44.020537,85.312744 38.010201,85.160739 32,84.999997 c 0,-1.65 0,-3.3 0,-5 0.99,-0.33 1.98,-0.66 3,-1 0,-0.66 0,-1.32 0,-2 4.638793,-0.725318 9.167677,-1.166874 13.859375,-1.316406 1.281328,-0.0419 2.562656,-0.08379 3.882812,-0.126953 0.659678,-0.01958 1.319356,-0.03916 1.999024,-0.05933 1.990041,-0.05926 3.979888,-0.124935 5.969726,-0.190674 2.564199,-0.08093 5.128675,-0.153597 7.69336,-0.217285 2.298655,-0.05712 4.597014,-0.129518 6.894531,-0.221677 z"
     fill="#89120f"
     id="path321" />
  <path
     d="m 130,39 c 0.495,0.99 0.495,0.99 1,2 0.5775,-0.165 1.155,-0.33 1.75,-0.5 C 135,40 135,40 139,40 c 1,3 1,3 1,5 -0.69094,-0.127617 -1.38188,-0.255234 -2.09375,-0.386719 -4.44875,0.591971 -6.43786,3.381999 -9.40625,6.574219 -0.55559,0.578145 -1.11117,1.156289 -1.68359,1.751953 -1.09691,1.142076 -2.18898,2.288823 -3.27588,3.44043 C 121.40229,58.628588 119.19595,60.807845 117,63 c -3.78691,4.147568 -5.89295,7.820179 -8,13 -4.3661,8.366102 -4.3661,8.366102 -6,10 -2.875,0.3125 -2.875,0.3125 -6,0 -1.9375,-1.6875 -1.9375,-1.6875 -3,-4 0,-2.5 0,-2.5 1,-5 0.746367,-0.564609 1.492734,-1.129219 2.261719,-1.710938 3.322031,-2.777049 5.266881,-5.777789 7.550781,-9.414062 3.56941,-5.537583 7.35743,-10.693507 11.55859,-15.777344 C 118.37772,47.513579 119.73429,45.006074 121,42 c 0.33,0 0.66,0 1,0 0,1.65 0,3.3 0,5 1.65,0 3.3,0 5,0 0.33,-0.66 0.66,-1.32 1,-2 1.32,0 2.64,0 4,0 0,-0.66 0,-1.32 0,-2 -1.98,0.33 -3.96,0.66 -6,1 1,-3 1,-3 4,-5 z"
     fill="#b60502"
     id="path323" />
  <path
     d="m 154,132 c 3.125,-0.4375 3.125,-0.4375 7,0 2.46813,1.94853 4.14704,4.47876 6,7 1.51176,1.88232 3.03316,3.75693 4.5625,5.625 1.08475,1.34965 1.08475,1.34965 2.19141,2.72656 2.24005,2.72568 2.24005,2.72568 4.95703,5.29297 C 181,155 181,155 182.0625,158.0625 182,161 182,161 180.375,163.4375 178,165 178,165 175.4375,164.9375 172.77346,163.91287 171.6666,163.30149 170,161 c -0.26813,-0.86625 -0.53625,-1.7325 -0.8125,-2.625 -2.86873,-8.15323 -8.90902,-14.57908 -14.52734,-20.99219 C 154.1123,136.59648 153.56445,135.81016 153,135 c 0.33,-0.99 0.66,-1.98 1,-3 z"
     fill="#d22d0e"
     id="path325" />
  <path
     d="m 138.75,110.625 c 3.65647,0.0624 4.94798,0.17365 8.0625,2.25 2.40511,3.43587 4.07848,6.95712 5.85156,10.74609 1.90824,3.398 4.20102,5.11885 7.33594,7.37891 0,0.33 0,0.66 0,1 -5.23726,1.04745 -5.23726,1.04745 -8,1 -2.5,-1.8125 -2.5,-1.8125 -4,-4 0,-0.66 0,-1.32 0,-2 -0.55688,-0.22688 -1.11375,-0.45375 -1.6875,-0.6875 C 140.5153,123.0222 136.82814,117.30152 133,112 c 1.64157,-1.64157 3.49216,-1.28816 5.75,-1.375 z"
     fill="#3e0101"
     id="path327" />
  <path
     d="m 98,112 c 0.66,0.33 1.32,0.66 2,1 0.48756,6.33831 0.48756,6.33831 -1.75,9.375 C 96,124 96,124 93.972656,124.30859 c -2.182501,0.50617 -2.182501,0.50617 -2.992187,2.76563 -0.26168,0.86238 -0.52336,1.72476 -0.792969,2.61328 C 88.274724,135.04174 85.621923,137.8062 81,141 80.71125,140.36062 80.4225,139.72125 80.125,139.0625 79.171765,136.84794 79.171765,136.84794 77,136 c 1.666667,-1.66667 3.333333,-3.33333 5,-5 0.886875,-0.9075 1.77375,-1.815 2.6875,-2.75 C 87,126 87,126 89,125 c -0.106992,-0.60328 -0.213984,-1.20656 -0.324219,-1.82812 -0.96472,-6.43147 -0.96472,-6.43147 0.324219,-9.73438 2.994826,-2.15253 5.41471,-1.76344 9,-1.4375 z"
     fill="#ad1513"
     id="path329" />
  <path
     d="m 110,141 c 0.33,0 0.66,0 1,0 -0.50797,4.31775 -1.19683,8.03302 -3,12 0.45375,-0.495 0.9075,-0.99 1.375,-1.5 C 111,150 111,150 113,150 c -1.42939,5.19778 -3.56833,9.82874 -7,14 -2.5625,1.25 -2.5625,1.25 -5,1 -2.767058,-1.94442 -3.817525,-3.189 -4.5625,-6.5 0.79372,-3.52765 2.709224,-4.36004 5.5625,-6.5 1.38124,-1.96722 2.71488,-3.96868 4,-6 1.29241,-1.6986 2.6149,-3.3761 4,-5 z"
     fill="#d1280e"
     id="path331" />
  <path
     d="m 79,136 c 0.66,0.33 1.32,0.66 2,1 0.30893,3.16793 0.20081,4.67493 -1.496094,7.42187 -0.640664,0.76829 -1.281328,1.53657 -1.941406,2.32813 -0.638086,0.77859 -1.276172,1.55719 -1.933594,2.35937 C 74.778782,150.09609 73.920956,151.07904 73,152 c -2.690829,-0.17636 -5.328514,-0.61836 -8,-1 0,0.66 0,1.32 0,2 1.32,0.66 2.64,1.32 4,2 0,0.66 0,1.32 0,2 -0.99,0 -1.98,0 -3,0 -0.33,0.99 -0.66,1.98 -1,3 -2.64,0 -5.28,0 -8,0 0.33,-1.65 0.66,-3.3 1,-5 1.32,0.33 2.64,0.66 4,1 0,0.66 0,1.32 0,2 0.66,0 1.32,0 2,0 0,-0.99 0,-1.98 0,-3 -0.66,0 -1.32,0 -2,0 -0.3125,-2.3125 -0.3125,-2.3125 0,-5 1.663574,-1.00514 3.330846,-2.00416 5,-3 1.59503,-1.65862 3.136319,-3.3703 4.625,-5.125 4.047507,-4.76584 4.047507,-4.76584 7.375,-5.875 z"
     fill="#650e0d"
     id="path333" />
  <path
     d="m 130.3125,34.1875 c 0.55687,0.268125 1.11375,0.53625 1.6875,0.8125 0,0.66 0,1.32 0,2 1.32,0 2.64,0 4,0 0.33,-0.66 0.66,-1.32 1,-2 2.475,0.495 2.475,0.495 5,1 0,1.666667 0,3.333333 0,5 2.97,0.495 2.97,0.495 6,1 -0.99,0.495 -0.99,0.495 -2,1 -1.14907,1.925464 -1.14907,1.925464 -1,4 -2.475,-0.495 -2.475,-0.495 -5,-1 -0.33,-1.65 -0.66,-3.3 -1,-5 -1.32,0 -2.64,0 -4,0 -0.84563,-0.185625 -1.69125,-0.37125 -2.5625,-0.5625 C 129.8728,39.776369 129.8728,39.776369 127,41 c 0.33,0.66 0.66,1.32 1,2 1.32,0 2.64,0 4,0 0,0.66 0,1.32 0,2 -1.32,0 -2.64,0 -4,0 -0.33,0.99 -0.66,1.98 -1,3 -1.98,0 -3.96,0 -6,0 0.69826,-4.783611 1.40349,-8.215113 4.375,-12.125 C 128,34 128,34 130.3125,34.1875 Z"
     fill="#940100"
     id="path335" />
  <path
     d="m 21.3125,111.4375 c 3.947489,0.60216 4.388614,0.78785 6.6875,3.75 1.565327,2.54045 2.006674,3.51884 1.9375,6.5625 C 29,124 29,124 27,127 c -2.25,0.625 -2.25,0.625 -5,0 -3.603888,-2.95095 -5.798996,-5.66835 -6.5,-10.3125 0.754424,-4.05503 1.781471,-4.56549 5.8125,-5.25 z"
     fill="#a30704"
     id="path337" />
  <path
     d="m 148,51 c 2.8535,-0.237792 5.20132,-0.420611 8,0 2.1875,2.0625 2.1875,2.0625 4,5 0.45633,0.565898 0.91266,1.131797 1.38281,1.714844 3.59921,4.494094 3.59921,4.494094 3.67969,8.035156 -1.25551,2.658717 -2.6909,3.582693 -5.0625,5.25 -0.4357,-0.712852 -0.87141,-1.425703 -1.32031,-2.160156 C 155.13714,63.142633 151.51869,57.959539 147,53 c 0.33,-0.66 0.66,-1.32 1,-2 z"
     fill="#820f0e"
     id="path339" />
  <path
     d="m 30,120 c 2.950973,3.53856 5.419664,7.15148 7.75,11.125 0.613594,1.03383 1.227187,2.06766 1.859375,3.13281 C 41,137 41,137 41,140 31.712562,138.92837 31.712562,138.92837 28.078125,134.83594 27.474844,134.02383 26.871562,133.21172 26.25,132.375 25.636406,131.55773 25.022812,130.74047 24.390625,129.89844 23.702266,128.95871 23.702266,128.95871 23,128 c 0.953262,-0.18949 0.953262,-0.18949 1.925781,-0.38281 2.235775,-0.41797 2.235775,-0.41797 3.261719,-2.49219 C 28.834641,123.43248 29.426989,121.71903 30,120 Z"
     fill="#b42b19"
     id="path341" />
  <path
     d="m 110,68 c 0.66,0.33 1.32,0.66 2,1 -5.42857,13.428571 -5.42857,13.428571 -9,17 -2.875,0.3125 -2.875,0.3125 -6,0 -1.9375,-1.6875 -1.9375,-1.6875 -3,-4 0,-2.5 0,-2.5 1,-5 2.3125,-2.0625 2.3125,-2.0625 5,-4 1.35147,-1.314945 2.69113,-2.642649 4,-4 0.33,1.98 0.66,3.96 1,6 2.34059,-2.127806 3.707,-4.115622 5,-7 z"
     fill="#c9190c"
     id="path343" />
  <path
     d="m 54.4375,75.9375 c 1.113106,0.0045 2.226211,0.009 3.373047,0.01367 C 60.540421,75.962888 63.270182,75.979293 66,76 c 0,0.33 0,0.66 0,1 -5.28,0 -10.56,0 -16,0 -0.33,1.32 -0.66,2.64 -1,4 -3,2 -3,2 -6,2 0,0.66 0,1.32 0,2 -3.63,0 -7.26,0 -11,0 0,-1.65 0,-3.3 0,-5 0.99,-0.33 1.98,-0.66 3,-1 0,-0.66 0,-1.32 0,-2 6.483498,-1.181355 12.862145,-1.11323 19.4375,-1.0625 z"
     fill="#d37d51"
     id="path345" />
  <path
     d="m 130,39 c 0.33,0.66 0.66,1.32 1,2 0.5775,-0.165 1.155,-0.33 1.75,-0.5 C 135,40 135,40 139,40 c 1,3 1,3 1,5 -1.09828,-0.139219 -1.09828,-0.139219 -2.21875,-0.28125 -3.80949,0.385229 -4.79485,1.944649 -7.28125,4.78125 -3.85349,4.39624 -3.85349,4.39624 -7.03125,4.90625 C 121,54 121,54 117,52 c 1.32,-3.3 2.64,-6.6 4,-10 0.33,0 0.66,0 1,0 0,1.65 0,3.3 0,5 1.65,0 3.3,0 5,0 0.33,-0.66 0.66,-1.32 1,-2 1.32,0 2.64,0 4,0 0,-0.66 0,-1.32 0,-2 -1.98,0.33 -3.96,0.66 -6,1 1,-3 1,-3 4,-5 z"
     fill="#b4110b"
     id="path347" />
  <path
     d="m 25,53 c 0.99,1.32 1.98,2.64 3,4 0.33,-0.66 0.66,-1.32 1,-2 0.66,0 1.32,0 2,0 0,5.28 0,10.56 0,16 -2.31,0.33 -4.62,0.66 -7,1 -1,-1 -1,-1 -1.097656,-4.816406 0.0067,-1.582061 0.01864,-3.164106 0.03516,-4.746094 0.0045,-0.806309 0.009,-1.612617 0.01367,-2.443359 C 22.962995,57.996062 22.980931,55.998022 23,54 c 0.66,-0.33 1.32,-0.66 2,-1 z"
     fill="#3d0000"
     id="path349" />
  <path
     d="m 121,132 c 0.99,0 1.98,0 3,0 -0.7143,8.55379 -3.88935,13.11672 -10,19 -0.99,-0.33 -1.98,-0.66 -3,-1 -0.33,0.99 -0.66,1.98 -1,3 -0.99,0.33 -1.98,0.66 -3,1 1.1285,-3.90634 2.08736,-6.214 5,-9 0.71448,-2.10333 0.71448,-2.10333 1,-4 0.66,0 1.32,0 2,0 0,-0.66 0,-1.32 0,-2 1.32,0 2.64,0 4,0 0.14437,-0.96938 0.28875,-1.93875 0.4375,-2.9375 C 120,133 120,133 121,132 Z"
     fill="#9e0403"
     id="path351" />
  <path
     d="m 144,112 c 2.99654,1.04814 3.90402,1.8299 5.49219,4.64453 0.45633,1.04543 0.91265,2.09086 1.38281,3.16797 2.42383,5.15681 4.47476,7.97662 9.125,11.1875 0,0.33 0,0.66 0,1 -5.23726,1.04745 -5.23726,1.04745 -8,1 -2.5,-1.8125 -2.5,-1.8125 -4,-4 0,-0.66 0,-1.32 0,-2 -0.63938,-0.26812 -1.27875,-0.53625 -1.9375,-0.8125 C 144,125 144,125 143,122 c 2.475,0.495 2.475,0.495 5,1 0,-0.99 0,-1.98 0,-3 -0.71156,-0.68063 -0.71156,-0.68063 -1.4375,-1.375 C 144.55417,116.53633 144.3813,114.82166 144,112 Z"
     fill="#611211"
     id="path353" />
  <path
     d="m 50,77 c 5.61,0 11.22,0 17,0 -1.32,1.32 -2.64,2.64 -4,4 -1.32,0 -2.64,0 -4,0 0,0.66 0,1.32 0,2 -2.96157,1.480785 -5.835063,1.35314 -9.125,1.5625 -1.281328,0.08379 -2.562656,0.167578 -3.882813,0.253906 C 45.004766,84.876992 44.017344,84.937578 43,85 c 0,-0.66 0,-1.32 0,-2 0.969375,-0.433125 1.93875,-0.86625 2.9375,-1.3125 C 49.277318,80.298514 49.277318,80.298514 50,77 Z"
     fill="#750100"
     id="path355" />
  <path
     d="m 126,123 c 0,0.99 0,1.98 0,3 -0.33,0.33 -0.66,0.66 -1,1 0.66,0.33 1.32,0.66 2,1 -2.625,3.875 -2.625,3.875 -6,5 -1.2252,3.00847 -1.2252,3.00847 -2,6 -1.32,0 -2.64,0 -4,0 0,0.66 0,1.32 0,2 -0.66,0 -1.32,0 -2,0 -0.12375,0.94875 -0.2475,1.8975 -0.375,2.875 C 112,147 112,147 110,149 c 0.11574,-7.17607 1.85308,-10.96613 6.21094,-16.64063 1.85325,-2.34124 1.85325,-2.34124 3.32812,-5.03124 C 121.23909,124.619 122.6443,123 126,123 Z"
     fill="#ad0f0c"
     id="path357" />
  <path
     d="m 61,151 c 0.33,1.32 0.66,2.64 1,4 0.66,0 1.32,0 2,0 0,0.99 0,1.98 0,3 -0.66,0 -1.32,0 -2,0 -0.33,-0.66 -0.66,-1.32 -1,-2 -0.99,-0.33 -1.98,-0.66 -3,-1 0,1.32 0,2.64 0,4 2.31,0 4.62,0 7,0 0,0.33 0,0.66 0,1 -1.763438,0.43312 -1.763438,0.43312 -3.5625,0.875 -3.839393,0.95814 -7.638832,2.01705 -11.4375,3.125 -3.938462,-3.32308 -3.938462,-3.32308 -4.25,-6.75 0.12375,-1.11375 0.12375,-1.11375 0.25,-2.25 0.99,0.495 0.99,0.495 2,1 0,0.99 0,1.98 0,3 1.946033,0.5907 1.946033,0.5907 4,1 0.33,-0.33 0.66,-0.66 1,-1 -0.66,-0.33 -1.32,-0.66 -2,-1 1,-3 1,-3 2.8125,-3.91406 0.721875,-0.23461 1.44375,-0.46922 2.1875,-0.71094 2.742693,-0.78615 2.742693,-0.78615 5,-2.375 z"
     fill="#8d0a04"
     id="path359" />
  <path
     d="m 79,136 c 0.66,0.33 1.32,0.66 2,1 0.318387,3.20093 0.195261,4.68669 -1.53125,7.45703 -0.649688,0.77731 -1.299375,1.55461 -1.96875,2.35547 -0.649688,0.79019 -1.299375,1.58039 -1.96875,2.39453 C 75.025937,149.79871 74.520625,150.39039 74,151 c -1.333333,-2.66667 -2.666667,-5.33333 -4,-8 5.48248,-5.78706 5.48248,-5.78706 9,-7 z"
     fill="#5e0c0c"
     id="path361" />
  <path
     d="m 128,117 c 0.66,0.33 1.32,0.66 2,1 -0.165,0.7425 -0.33,1.485 -0.5,2.25 -0.61926,2.94007 -0.61926,2.94007 -0.5,6.75 0.99,0.33 1.98,0.66 3,1 -1.2861,1.98299 -2.57849,3.96133 -3.875,5.9375 -0.7193,1.10215 -1.43859,2.2043 -2.17969,3.33984 C 124,140 124,140 122,141 c -0.26264,-4.33348 0.65632,-7.88994 2,-12 0.33,-0.33 0.66,-0.66 1,-1 -0.66,-0.33 -1.32,-0.66 -2,-1 0.99,-0.33 1.98,-0.66 3,-1 0.14437,-1.11375 0.28875,-2.2275 0.4375,-3.375 C 127,119 127,119 128,117 Z"
     fill="#a00d0a"
     id="path363" />
  <path
     d="m 31,51 c 0.33,0 0.66,0 1,0 0.01982,0.670554 0.03964,1.341108 0.06006,2.031982 0.09554,3.05222 0.205101,6.103781 0.314941,9.155518 0.03094,1.055098 0.06188,2.110195 0.09375,3.197266 0.03867,1.021582 0.07734,2.043164 0.117188,3.095703 0.03142,0.93739 0.06284,1.87478 0.09522,2.840576 C 33.020228,74.169958 33.822575,76.395204 35,79 c -0.66,0.33 -1.32,0.66 -2,1 -0.655551,2.527332 -0.655551,2.527332 -1,5 -3.337278,-1.172557 -5.774375,-2.188684 -8,-5 0,-0.66 0,-1.32 0,-2 0.99,0 1.98,0 3,0 0,0.66 0,1.32 0,2 1.65,-0.66 3.3,-1.32 5,-2 0,-0.66 0,-1.32 0,-2 -0.99,0 -1.98,0 -3,0 0,-1.65 0,-3.3 0,-5 0.66,0 1.32,0 2,0 0,-6.6 0,-13.2 0,-20 z"
     fill="#8a261f"
     id="path365" />
  <path
     d="m 25,117 c 0.99,0.33 1.98,0.66 3,1 0,0.66 0,1.32 0,2 0.66,0 1.32,0 2,0 -0.612776,2.96175 -1.253725,4.38059 -3,7 -2.375,0.4375 -2.375,0.4375 -5,0 -2.3125,-1.875 -2.3125,-1.875 -4,-4 0,-0.66 0,-1.32 0,-2 3,-2 3,-2 7,-2 0,-0.66 0,-1.32 0,-2 z"
     fill="#6f0100"
     id="path367" />
  <path
     d="m 78,78 c 0.33,0.99 0.66,1.98 1,3 0.66,0 1.32,0 2,0 0.33,0.99 0.66,1.98 1,3 C 81.096367,83.9884 80.192734,83.9768 79.261719,83.96484 77.49248,83.9513 77.49248,83.9513 75.6875,83.9375 74.515742,83.9259 73.343984,83.9143 72.136719,83.90234 68.969408,83.851001 68.969408,83.851001 66,85 c 0.1875,-2.375 0.1875,-2.375 1,-5 3.613158,-2.167895 6.859414,-2.192585 11,-2 z"
     fill="#f57a00"
     id="path369" />
  <path
     d="m 165,64 c 0.70125,0.721875 1.4025,1.44375 2.125,2.1875 2.80271,2.810738 5.79763,5.307662 8.875,7.8125 -0.66,0.66 -1.32,1.32 -2,2 0,-0.66 0,-1.32 0,-2 -0.99,0 -1.98,0 -3,0 0,-0.66 0,-1.32 0,-2 -3.12197,1.308957 -3.12197,1.308957 -5,4 -0.99,0 -1.98,0 -3,0 -2,-3 -2,-3 -1.8125,-4.875 C 162.17455,68.543482 163.51452,66.325094 165,64 Z"
     fill="#a71308"
     id="path371" />
  <path
     d="m 100,75 c 2.4142,0.965679 3.80864,1.758717 5.4375,3.8125 C 106,81 106,81 105,83.75 103,86 103,86 99.8125,86.3125 98.884375,86.209375 97.95625,86.10625 97,86 c -0.66,-1.32 -1.32,-2.64 -2,-4 1.375,-1.5 1.375,-1.5 3,-3 0.66,0 1.32,0 2,0 0,-1.32 0,-2.64 0,-4 z"
     fill="#c51c0d"
     id="path373" />
  <path
     d="m 99,154 c 0.433125,0.66 0.86625,1.32 1.3125,2 0.83531,0.99 0.83531,0.99 1.6875,2 0.99,0 1.98,0 3,0 0,0.99 0,1.98 0,3 0.66,0 1.32,0 2,0 0,-0.99 0,-1.98 0,-3 0.66,0 1.32,0 2,0 -1.07401,2.91517 -1.7781,4.7781 -4,7 -3,-0.1875 -3,-0.1875 -6,-1 -2.149158,-3.22374 -2.382868,-4.26704 -2,-8 0.66,-0.66 1.32,-1.32 2,-2 z"
     fill="#db491f"
     id="path375" />
  <path
     d="m 93,112 c 2.339447,0.2873 4.673914,0.61937 7,1 0,2.31 0,4.62 0,7 -2.647389,1.46063 -3.894483,2 -7,2 -0.194122,-1.47831 -0.380121,-2.95769 -0.5625,-4.4375 -0.104414,-0.82371 -0.208828,-1.64742 -0.316406,-2.49609 C 92.081133,114.38449 92.041172,113.70258 92,113 c 0.33,-0.33 0.66,-0.66 1,-1 z"
     fill="#760000"
     id="path377" />
  <path
     d="m 176,151 c 3,1 3,1 4.75,3.25 1.46592,3.22502 1.46198,4.46035 0.25,7.75 -1.3125,1.875 -1.3125,1.875 -3,3 -2.1875,-0.3125 -2.1875,-0.3125 -4,-1 0.99,0 1.98,0 3,0 -0.33,-2.31 -0.66,-4.62 -1,-7 -0.66,0 -1.32,0 -2,0 0,-1.65 0,-3.3 0,-5 0.66,-0.33 1.32,-0.66 2,-1 z"
     fill="#e15220"
     id="path379" />
  <path
     d="m 117,49 c 0.33,0.99 0.66,1.98 1,3 0.99,0 1.98,0 3,0 0,0.66 0,1.32 0,2 1.32,0.33 2.64,0.66 4,1 -0.70125,0.515625 -1.4025,1.03125 -2.125,1.5625 -3.36967,2.856897 -6.08657,6.02622 -8.875,9.4375 -1.20776,-3.623267 -0.54311,-4.641464 1,-8 0.66,0 1.32,0 2,0 0,-1.32 0,-2.64 0,-4 -0.99,-0.33 -1.98,-0.66 -3,-1 0.99,-1.32 1.98,-2.64 3,-4 z"
     fill="#b31613"
     id="path381" />
  <path
     d="m 128,34 c 0.66,0.33 1.32,0.66 2,1 -0.51563,0.94875 -1.03125,1.8975 -1.5625,2.875 -0.71156,1.546875 -0.71156,1.546875 -1.4375,3.125 0.33,0.66 0.66,1.32 1,2 1.32,0 2.64,0 4,0 0,0.66 0,1.32 0,2 -1.32,0 -2.64,0 -4,0 -0.33,0.99 -0.66,1.98 -1,3 -1.98,0 -3.96,0 -6,0 0.92066,-6.307193 1.99775,-9.919214 7,-14 z"
     fill="#a00100"
     id="path383" />
  <path
     d="m 148,51 c 2.64,0 5.28,0 8,0 1.125,1.6875 1.125,1.6875 2,4 -0.875,2.75 -0.875,2.75 -2,5 -2.37949,-0.176258 -3.70226,-0.697198 -5.37891,-2.402344 C 149.37885,56.093509 148.18624,54.548701 147,53 c 0.33,-0.66 0.66,-1.32 1,-2 z"
     fill="#630202"
     id="path385" />
  <path
     d="m 66,76 c 1.65,0 3.3,0 5,0 -0.639375,0.7425 -1.27875,1.485 -1.9375,2.25 C 66.726642,80.993937 66.726642,80.993937 66,85 c -6.27,0 -12.54,0 -19,0 0,-0.33 0,-0.66 0,-1 5.94,-0.495 5.94,-0.495 12,-1 0,-0.66 0,-1.32 0,-2 1.32,0 2.64,0 4,0 0.33,-0.66 0.66,-1.32 1,-2 0.66,-0.66 1.32,-1.32 2,-2 0,-0.33 0,-0.66 0,-1 z"
     fill="#9b2313"
     id="path387" />
  <path
     d="m 48,150 c 3.820972,0.53069 6.061714,1.49702 9,4 -0.804375,0.28875 -1.60875,0.5775 -2.4375,0.875 -2.695147,0.85763 -2.695147,0.85763 -3.5625,3.125 0.99,0.33 1.98,0.66 3,1 -0.99,0.66 -1.98,1.32 -3,2 0,-0.66 0,-1.32 0,-2 -0.99,0 -1.98,0 -3,0 -2,-3 -2,-3 -3,-5 0.66,0 1.32,0 2,0 0.33,-1.32 0.66,-2.64 1,-4 z"
     fill="#d93509"
     id="path389" />
  <path
     d="m 84,129 c 1.32,0.99 2.64,1.98 4,3 -0.176258,2.37949 -0.697198,3.70226 -2.402344,5.37891 C 84.093509,138.62115 82.548701,139.81376 81,141 80.71125,140.36062 80.4225,139.72125 80.125,139.0625 79.171766,136.84794 79.171766,136.84794 77,136 c 2.333333,-2.33333 4.666667,-4.66667 7,-7 z"
     fill="#951814"
     id="path391" />
  <path
     d="m 22,69 c 0.66,0.66 1.32,1.32 2,2 2.583542,0.166875 2.583542,0.166875 5,0 0,1.65 0,3.3 0,5 0.99,0 1.98,0 3,0 0,0.66 0,1.32 0,2 -1.65,0.66 -3.3,1.32 -5,2 0,-0.66 0,-1.32 0,-2 -1.32,0 -2.64,0 -4,0 -1.478323,-2.956645 -1.060328,-5.742297 -1,-9 z"
     fill="#580000"
     id="path393" />
  <path
     d="m 151,122 c 0.83531,1.08281 0.83531,1.08281 1.6875,2.1875 2.29159,2.78707 4.7271,5.29892 7.3125,7.8125 -7.28782,1.3142 -7.28782,1.3142 -10.125,0.0625 -1.49608,-3.52647 0.0135,-6.49385 1.125,-10.0625 z"
     fill="#6c1514"
     id="path395" />
  <path
     d="m 37,78 c 0.66,1.65 1.32,3.3 2,5 1.32,0 2.64,0 4,0 0,0.66 0,1.32 0,2 -3.63,0 -7.26,0 -11,0 0,-1.65 0,-3.3 0,-5 3,-2 3,-2 5,-2 z"
     fill="#e44302"
     id="path397" />
  <path
     d="m 120,131 c 0.66,0.33 1.32,0.66 2,1 -0.99,2.31 -1.98,4.62 -3,7 -1.32,0 -2.64,0 -4,0 0,0.66 0,1.32 0,2 -0.66,0 -1.32,0 -2,0 -0.12375,0.94875 -0.2475,1.8975 -0.375,2.875 C 112,147 112,147 110,149 c 0.11459,-1.43837 0.24209,-2.87571 0.375,-4.3125 0.0696,-0.80051 0.13922,-1.60102 0.21094,-2.42578 C 111,140 111,140 113,137 c 0.99,-0.33 1.98,-0.66 3,-1 0.33,-0.66 0.66,-1.32 1,-2 0.66,0 1.32,0 2,0 0.33,-0.99 0.66,-1.98 1,-3 z"
     fill="#bb0600"
     id="path399" />
  <path
     d="m 50,77 c 1.65,0 3.3,0 5,0 -0.75,4.75 -0.75,4.75 -3,7 -2.164063,0.414062 -2.164063,0.414062 -4.625,0.625 -0.817266,0.07477 -1.634531,0.149531 -2.476563,0.226562 C 44.271953,84.900547 43.645469,84.949531 43,85 c 0,-0.66 0,-1.32 0,-2 0.969375,-0.433125 1.93875,-0.86625 2.9375,-1.3125 C 49.277318,80.298514 49.277318,80.298514 50,77 Z"
     fill="#560402"
     id="path401" />
  <path
     d="m 115,140 c 2,2 2,2 2,6 -0.99,0.66 -1.98,1.32 -3,2 -0.33,0.99 -0.66,1.98 -1,3 -0.66,-0.33 -1.32,-0.66 -2,-1 -0.33,0.99 -0.66,1.98 -1,3 -0.99,0.33 -1.98,0.66 -3,1 1.1285,-3.90634 2.08736,-6.21399 5,-9 0.35169,-1.32861 0.6877,-2.66158 1,-4 0.66,-0.33 1.32,-0.66 2,-1 z"
     fill="#850100"
     id="path403" />
  <path
     d="m 132,112 c 7.66743,5.96583 7.66743,5.96583 9,11 -2.375,-0.1875 -2.375,-0.1875 -5,-1 -1.125,-2.5 -1.125,-2.5 -2,-5 -0.99,-0.33 -1.98,-0.66 -3,-1 0.33,-1.32 0.66,-2.64 1,-4 z"
     fill="#bd210f"
     id="path405" />
  <path
     d="m 112,64 c 0.33,0.99 0.66,1.98 1,3 -0.99,0.33 -1.98,0.66 -3,1 -0.67939,1.995713 -1.34562,3.995948 -2,6 -0.99,0.66 -1.98,1.32 -3,2 -1.0625,-2.375 -1.0625,-2.375 -2,-5 1,-2 1,-2 4.0625,-3.125 1.45406,-0.433125 1.45406,-0.433125 2.9375,-0.875 0,-0.66 0,-1.32 0,-2 0.66,-0.33 1.32,-0.66 2,-1 z"
     fill="#d11300"
     id="path407" />
  <path
     d="m 30,120 c 2.252459,2.68842 3.88214,4.64642 5,8 -3.695416,0.95025 -6.304584,0.95025 -10,0 -0.33,0.66 -0.66,1.32 -1,2 -0.33,-0.99 -0.66,-1.98 -1,-3 1.32,0 2.64,0 4,0 1.20628,-2.33214 2.165474,-4.49642 3,-7 z"
     fill="#b62013"
     id="path409" />
  <path
     d="m 79,80 c 1.32,0 2.64,0 4,0 0,0.66 0,1.32 0,2 0.66,0 1.32,0 2,0 -0.66,1.32 -1.32,2.64 -2,4 -5.77807,0.23584 -10.513248,-0.13217 -16,-2 3.149309,-1.04977 5.388145,-1.101316 8.6875,-1.0625 0.993867,0.009 1.987734,0.01805 3.011719,0.02734 C 79.838105,82.98224 79.838105,82.98224 81,83 c 0,-0.66 0,-1.32 0,-2 -0.66,-0.33 -1.32,-0.66 -2,-1 z"
     fill="#c2220b"
     id="path411" />
  <path
     d="m 21.5625,111.9375 c 1.134375,0.0206 2.26875,0.0413 3.4375,0.0625 0.33,0.99 0.66,1.98 1,3 -2,2 -2,2 -3.945313,2.19531 C 20.036458,117.13021 18.018229,117.0651 16,117 c 1.125568,-4.98466 1.125568,-4.98466 5.5625,-5.0625 z"
     fill="#811010"
     id="path413" />
  <path
     d="m 171,72 c 0,0.66 0,1.32 0,2 1.65,0.33 3.3,0.66 5,1 0,0.66 0,1.32 0,2 -0.80438,0.12375 -1.60875,0.2475 -2.4375,0.375 -1.26844,0.309375 -1.26844,0.309375 -2.5625,0.625 -0.33,0.66 -0.66,1.32 -1,2 -0.66,-0.99 -1.32,-1.98 -2,-3 -2.05925,-0.723825 -2.05925,-0.723825 -4,-1 0.66,0 1.32,0 2,0 0.33,-0.99 0.66,-1.98 1,-3 2,-1 2,-1 4,-1 z"
     fill="#700200"
     id="path415" />
  <path
     d="m 24,55 c 0.99,0 1.98,0 3,0 0.33,0.66 0.66,1.32 1,2 0.33,-0.66 0.66,-1.32 1,-2 0.66,0 1.32,0 2,0 0,1.98 0,3.96 0,6 -1.65,0.33 -3.3,0.66 -5,1 0,-0.66 0,-1.32 0,-2 -0.66,0 -1.32,0 -2,0 0,-1.65 0,-3.3 0,-5 z"
     fill="#250000"
     id="path417" />
  <path
     d="m 173,156 c 0.99,0.33 1.98,0.66 3,1 0.33,2.31 0.66,4.62 1,7 -4.875,-0.875 -4.875,-0.875 -6,-2 -0.0406,-1.66617 -0.0427,-3.33388 0,-5 0.66,-0.33 1.32,-0.66 2,-1 z"
     fill="#bc1e02"
     id="path419" />
  <path
     d="m 27.125,33.875 c 0.94875,0.04125 1.8975,0.0825 2.875,0.125 0.33,1.65 0.66,3.3 1,5 -4.75,1.125 -4.75,1.125 -7,0 0,-0.66 0,-1.32 0,-2 -0.66,-0.33 -1.32,-0.66 -2,-1 2,-2 2,-2 5.125,-2.125 z"
     fill="#5b0909"
     id="path421" />
  <path
     d="m 101,71 c 1.20776,3.623267 0.54311,4.641464 -1,8 -0.66,0 -1.32,0 -2,0 -0.33,0.99 -0.66,1.98 -1,3 -0.99,0 -1.98,0 -3,0 0.301051,-3.612608 0.708681,-4.745096 3.5,-7.1875 0.825,-0.598125 1.65,-1.19625 2.5,-1.8125 0.33,-0.66 0.66,-1.32 1,-2 z"
     fill="#c3241b"
     id="path423" />
  <path
     d="m 151,47 c 3.875,1.75 3.875,1.75 5,4 -7.625,1 -7.625,1 -11,1 0,-1.32 0,-2.64 0,-4 1.20656,0.03094 1.20656,0.03094 2.4375,0.0625 2.49605,0.233836 2.49605,0.233836 3.5625,-1.0625 z"
     fill="#8e1414"
     id="path425" />
  <path
     d="m 65,151 c 2.64,0.33 5.28,0.66 8,1 -1.32,2.64 -2.64,5.28 -4,8 -0.99,-0.33 -1.98,-0.66 -3,-1 0,-0.66 0,-1.32 0,-2 0.99,0 1.98,0 3,0 0,-0.66 0,-1.32 0,-2 -1.65,-0.33 -3.3,-0.66 -5,-1 0.33,-0.99 0.66,-1.98 1,-3 z"
     fill="#900c06"
     id="path427" />
  <path
     d="m 111,150 c 0.66,0 1.32,0 2,0 -1.47692,5.66154 -1.47692,5.66154 -4.125,7.375 -0.92812,0.30937 -0.92812,0.30937 -1.875,0.625 0,0.99 0,1.98 0,3 -0.66,0 -1.32,0 -2,0 0.25,-3.375 0.25,-3.375 1,-7 2,-1.3125 2,-1.3125 4,-2 0.33,-0.66 0.66,-1.32 1,-2 z"
     fill="#b3130a"
     id="path429" />
  <path
     d="M 157.375,131.75 C 161,132 161,132 162.9375,133.375 164,135 164,135 164,137 c -1.32,0.33 -2.64,0.66 -4,1 0,-0.66 0,-1.32 0,-2 -0.66,0 -1.32,0 -2,0 0,-0.66 0,-1.32 0,-2 -0.99,0.33 -1.98,0.66 -3,1 -0.66,-0.66 -1.32,-1.32 -2,-2 1,-1 1,-1 4.375,-1.25 z"
     fill="#c5210b"
     id="path431" />
  <path
     d="m 25,128 c 3.3,0 6.6,0 10,0 0,0.99 0,1.98 0,3 -1.65,-0.33 -3.3,-0.66 -5,-1 0,0.99 0,1.98 0,3 -1.32,-0.33 -2.64,-0.66 -4,-1 -0.33,-1.32 -0.66,-2.64 -1,-4 z"
     fill="#930b06"
     id="path433" />
  <path
     d="m 111,57 c 0.66,0.33 1.32,0.66 2,1 -0.495,0.7425 -0.99,1.485 -1.5,2.25 -1.81923,2.813182 -1.81923,2.813182 -1.5,6.75 -3,2 -3,2 -6,2 1.55702,-4.671058 4.08447,-8.087057 7,-12 z"
     fill="#b81c19"
     id="path435" />
  <path
     d="m 100,75 c 3.16116,1.369835 3.99271,1.989064 6,5 -0.66,0 -1.32,0 -2,0 0,0.66 0,1.32 0,2 -1.32,0.33 -2.64,0.66 -4,1 -0.66,-1.32 -1.32,-2.64 -2,-4 0.66,0 1.32,0 2,0 0,-1.32 0,-2.64 0,-4 z"
     fill="#c10a00"
     id="path437" />
  <path
     d="m 158,64 c 2.31,0 4.62,0 7,0 -0.39804,2.885758 -0.79009,3.821895 -3.0625,5.75 -0.63938,0.4125 -1.27875,0.825 -1.9375,1.25 -2,-3 -2,-3 -2,-7 z"
     fill="#7f0f08"
     id="path439" />
  <path
     d="m 44,146 c 4.875,1.75 4.875,1.75 6,4 -2.97,-0.495 -2.97,-0.495 -6,-1 0,-0.99 0,-1.98 0,-3 z m 2,4 c 0.66,0.33 1.32,0.66 2,1 -0.33,0.99 -0.66,1.98 -1,3 -0.66,0 -1.32,0 -2,0 0.33,1.65 0.66,3.3 1,5 -1.32,-1.32 -2.64,-2.64 -4,-4 1.32,-1.65 2.64,-3.3 4,-5 z"
     fill="#de4915"
     id="path441" />
  <path
     d="m 70,144 c 1.5,1.1875 1.5,1.1875 3,3 0.1875,2.6875 0.1875,2.6875 0,5 -1.32,0 -2.64,0 -4,0 -0.625,-2.875 -0.625,-2.875 -1,-6 0.66,-0.66 1.32,-1.32 2,-2 z"
     fill="#3b0202"
     id="path443" />
  <path
     d="m 176,151 c 0.99,0.33 1.98,0.66 3,1 0.75,2 0.75,2 1,4 -1,1 -1,1 -3.5625,1.0625 -1.20656,-0.0309 -1.20656,-0.0309 -2.4375,-0.0625 0,-1.65 0,-3.3 0,-5 0.66,-0.33 1.32,-0.66 2,-1 z"
     fill="#e14309"
     id="path445" />
  <path
     d="m 48,152 c 1.333333,1.33333 2.666667,2.66667 4,4 -0.33,0.66 -0.66,1.32 -1,2 0.99,0.33 1.98,0.66 3,1 -0.99,0.66 -1.98,1.32 -3,2 0,-0.66 0,-1.32 0,-2 -0.99,0 -1.98,0 -3,0 -2,-3 -2,-3 -3,-5 0.99,-0.66 1.98,-1.32 3,-2 z"
     fill="#c41b00"
     id="path447" />
  <path
     d="m 160,141 c 2.31,0 4.62,0 7,0 0.33,0.99 0.66,1.98 1,3 -3,2 -3,2 -6,2 -0.66,-1.65 -1.32,-3.3 -2,-5 z"
     fill="#911307"
     id="path449" />
  <path
     d="m 31,135 c 2.31,0 4.62,0 7,0 0,0.99 0,1.98 0,3 0.99,0.33 1.98,0.66 3,1 -4.175877,1.39196 -6.134748,-0.17677 -10,-2 0,-0.66 0,-1.32 0,-2 z"
     fill="#9a0800"
     id="path451" />
  <path
     d="m 91,125 c -0.66,2.64 -1.32,5.28 -2,8 -1.65,-1.65 -3.3,-3.3 -5,-5 4.75,-3 4.75,-3 7,-3 z"
     fill="#cf351d"
     id="path453" />
  <path
     d="m 134,111 c 3.3,0 6.6,0 10,0 -1.75,4.875 -1.75,4.875 -4,6 -0.2475,-0.80437 -0.495,-1.60875 -0.75,-2.4375 -0.4125,-0.84562 -0.825,-1.69125 -1.25,-2.5625 -1.32,-0.33 -2.64,-0.66 -4,-1 z"
     fill="#330f0f"
     id="path455" />
  <path
     d="m 154,61 c 1.64666,0.113563 3.29236,0.241174 4.9375,0.375 0.91652,0.06961 1.83305,0.139219 2.77734,0.210937 C 162.846,61.790898 162.846,61.790898 164,62 c 0.33,0.66 0.66,1.32 1,2 -4.75,1.125 -4.75,1.125 -7,0 -0.33,0.66 -0.66,1.32 -1,2 -0.99,-1.65 -1.98,-3.3 -3,-5 z"
     fill="#a2150e"
     id="path457" />
  <path
     d="m 107,154 c -0.33,1.32 -0.66,2.64 -1,4 -1.65,0.33 -3.3,0.66 -5,1 -0.33,-1.65 -0.66,-3.3 -1,-5 3.01032,-0.93424 3.8665,-1.0445 7,0 z"
     fill="#dd2b00"
     id="path459" />
  <path
     d="m 133,112 c 2.3125,-0.3125 2.3125,-0.3125 5,0 1.81883,2.38329 3,3.95818 3,7 -3.79521,-1.49098 -5.61043,-3.75701 -8,-7 z"
     fill="#170000"
     id="path461" />
  <path
     d="m 97,112 c 0.99,0.33 1.98,0.66 3,1 0.1875,3.375 0.1875,3.375 0,7 -0.99,0.66 -1.98,1.32 -3,2 0,-3.3 0,-6.6 0,-10 z"
     fill="#a11010"
     id="path463" />
  <path
     d="m 128,50 c -0.66,1.32 -1.32,2.64 -2,4 -1.65,0 -3.3,0 -5,0 0,-0.99 0,-1.98 0,-3 3.625,-2.125 3.625,-2.125 7,-1 z"
     fill="#a10b0a"
     id="path465" />
  <path
     d="m 144,112 c 3.2103,1.107 4.00969,2.01604 5.8125,5 0.39187,0.99 0.78375,1.98 1.1875,3 -0.33,0.66 -0.66,1.32 -1,2 -3.53586,-3.17321 -5.58578,-5.16744 -6,-10 z"
     fill="#561e1e"
     id="path467" />
  <path
     d="m 39,77 c 2.97,0 5.94,0 9,0 -0.66,1.32 -1.32,2.64 -2,4 -2.97,-0.495 -2.97,-0.495 -6,-1 -0.33,-0.99 -0.66,-1.98 -1,-3 z"
     fill="#a01102"
     id="path469" />
  <path
     d="m 31,61 c 0,3.3 0,6.6 0,10 -0.66,-0.66 -1.32,-1.32 -2,-2 0,-1.32 0,-2.64 0,-4 -1.32,-0.33 -2.64,-0.66 -4,-1 0,-0.66 0,-1.32 0,-2 4.875,-1 4.875,-1 6,-1 z"
     fill="#510000"
     id="path471" />
  <path
     d="m 68,162 c -2.359687,2.0975 -3.54617,2.96906 -6.75,3.1875 C 60.13625,165.0947 60.13625,165.0947 59,165 c 0,-0.99 0,-1.98 0,-3 5.625,-1.125 5.625,-1.125 9,0 z"
     fill="#951510"
     id="path473" />
  <path
     d="m 46,155 c 0.99,0.495 0.99,0.495 2,1 0,0.99 0,1.98 0,3 0.99,0 1.98,0 3,0 0,0.66 0,1.32 0,2 0.66,0.66 1.32,1.32 2,2 -0.99,0.33 -1.98,0.66 -3,1 -3.938462,-3.32308 -3.938462,-3.32308 -4.25,-6.75 0.0825,-0.7425 0.165,-1.485 0.25,-2.25 z"
     fill="#99180a"
     id="path475" />
  <path
     d="m 105,147 c 2,3 2,3 2,6 -0.99,0 -1.98,0 -3,0 -0.33,0.66 -0.66,1.32 -1,2 -0.99,-0.66 -1.98,-1.32 -3,-2 0.45375,-0.43313 0.9075,-0.86625 1.375,-1.3125 1.82524,-1.79548 1.82524,-1.79548 3.625,-4.6875 z"
     fill="#d63815"
     id="path477" />
  <path
     d="m 121,141 c -1.55501,3.81684 -4.03595,6.19196 -7,9 -0.33,-0.99 -0.66,-1.98 -1,-3 1.32,-0.33 2.64,-0.66 4,-1 0,-1.32 0,-2.64 0,-4 2,-1 2,-1 4,-1 z"
     fill="#a31817"
     id="path479" />
  <path
     d="m 79,136 c 0.66,0.33 1.32,0.66 2,1 0,1.65 0,3.3 0,5 -1.32,0 -2.64,0 -4,0 0,-1.65 0,-3.3 0,-5 0.66,-0.33 1.32,-0.66 2,-1 z"
     fill="#6e0303"
     id="path481" />
  <path
     d="m 115,58 c 1.32,0.66 2.64,1.32 4,2 -1.65,1.98 -3.3,3.96 -5,6 -1.20776,-3.623267 -0.54311,-4.641464 1,-8 z"
     fill="#cb291b"
     id="path483" />
  <path
     d="m 151,46 c -0.33,0.99 -0.66,1.98 -1,3 -2.66667,0 -5.33333,0 -8,0 0,-0.66 0,-1.32 0,-2 3.19641,-1.06547 5.65747,-1.074278 9,-1 z"
     fill="#820707"
     id="path485" />
  <path
     d="m 170,146 c 2.62187,1.04875 3.79371,1.64931 5.25,4.125 0.2475,0.61875 0.495,1.2375 0.75,1.875 -0.66,0 -1.32,0 -2,0 -0.33,0.66 -0.66,1.32 -1,2 -0.33,-1.65 -0.66,-3.3 -1,-5 -0.66,0 -1.32,0 -2,0 0,-0.99 0,-1.98 0,-3 z"
     fill="#c91f06"
     id="path487" />
  <path
     d="m 113,137 c 0.66,1.32 1.32,2.64 2,4 -0.66,0 -1.32,0 -2,0 -0.12375,0.94875 -0.2475,1.8975 -0.375,2.875 C 112,147 112,147 110,149 c 0.11459,-1.43837 0.24209,-2.87571 0.375,-4.3125 0.0696,-0.80051 0.13922,-1.60102 0.21094,-2.42578 C 111,140 111,140 113,137 Z"
     fill="#be150a"
     id="path489" />
  <path
     d="m 31,137 c 1.627522,0.25524 3.252032,0.52974 4.875,0.8125 1.357383,0.22623 1.357383,0.22623 2.742187,0.45703 C 41,139 41,139 43,142 c -3.63,-0.66 -7.26,-1.32 -11,-2 -0.33,-0.99 -0.66,-1.98 -1,-3 z"
     fill="#d33814"
     id="path491" />
  <path
     d="m 130,39 c 0.33,0.66 0.66,1.32 1,2 1.32,-0.33 2.64,-0.66 4,-1 -0.33,0.99 -0.66,1.98 -1,3 -2.64,0.33 -5.28,0.66 -8,1 1,-3 1,-3 4,-5 z"
     fill="#c20b00"
     id="path493" />
  <path
     d="m 26,119 c -0.33,0.99 -0.66,1.98 -1,3 -3.0625,1.1875 -3.0625,1.1875 -6,2 -0.33,-0.99 -0.66,-1.98 -1,-3 3.227916,-2.15194 4.284008,-2.20086 8,-2 z"
     fill="#7a0606"
     id="path495" />
  <path
     d="m 176,76 c 1.485,0.99 1.485,0.99 3,2 -0.33,1.98 -0.66,3.96 -1,6 -0.99,-0.66 -1.98,-1.32 -3,-2 0.33,-1.98 0.66,-3.96 1,-6 z"
     fill="#aa2b23"
     id="path497" />
  <path
     d="m 24,78 c 3,0 3,0 4.386719,1.3125 C 29.591146,80.875 30.795573,82.4375 32,84 c -0.99,0.495 -0.99,0.495 -2,1 -2.041198,-1.615948 -4.040729,-3.285638 -6,-5 0,-0.66 0,-1.32 0,-2 z"
     fill="#721c1c"
     id="path499" />
  <path
     d="m 103,158 c 0.66,0 1.32,0 2,0 0,0.99 0,1.98 0,3 0.66,0 1.32,0 2,0 0,-0.99 0,-1.98 0,-3 0.66,0 1.32,0 2,0 -0.66,1.65 -1.32,3.3 -2,5 -1.32,0 -2.64,0 -4,0 0,-1.65 0,-3.3 0,-5 z"
     fill="#c8331e"
     id="path501" />
  <path
     d="m 58,155 c 1.98,0.495 1.98,0.495 4,1 0,0.66 0,1.32 0,2 0.66,0.33 1.32,0.66 2,1 -2.31,0.33 -4.62,0.66 -7,1 0.33,-1.65 0.66,-3.3 1,-5 z"
     fill="#670000"
     id="path503" />
  <path
     d="m 153,134 c 1.65,0 3.3,0 5,0 0,0.66 0,1.32 0,2 0.66,0 1.32,0 2,0 -0.66,1.32 -1.32,2.64 -2,4 -1.68763,-1.64544 -3.35403,-3.31289 -5,-5 0,-0.33 0,-0.66 0,-1 z"
     fill="#d24618"
     id="path505" />
  <path
     d="m 121,132 c 0.99,0 1.98,0 3,0 -0.375,2.9375 -0.375,2.9375 -1,6 -0.99,0.495 -0.99,0.495 -2,1 0,-0.66 0,-1.32 0,-2 -0.66,-0.33 -1.32,-0.66 -2,-1 0.66,-1.32 1.32,-2.64 2,-4 z"
     fill="#a80000"
     id="path507" />
  <path
     d="m 35,129 c 0.66,0.66 1.32,1.32 2,2 -0.33,0.99 -0.66,1.98 -1,3 -2.97,-0.495 -2.97,-0.495 -6,-1 0,-0.99 0,-1.98 0,-3 2.475,0.495 2.475,0.495 5,1 0,-0.66 0,-1.32 0,-2 z"
     fill="#c72207"
     id="path509" />
  <path
     d="m 50,77 c -0.3125,1.875 -0.3125,1.875 -1,4 -0.99,0.66 -1.98,1.32 -3,2 -0.99,-0.33 -1.98,-0.66 -3,-1 0.99,-0.66 1.98,-1.32 3,-2 -0.66,-0.66 -1.32,-1.32 -2,-2 2.075536,-0.553476 3.84366,-1 6,-1 z"
     fill="#da3800"
     id="path511" />
  <path
     d="m 149,42 c 0.99,0.99 1.98,1.98 3,3 -0.33,0.66 -0.66,1.32 -1,2 -4.455,-0.99 -4.455,-0.99 -9,-2 4,-1 4,-1 7,-1 0,-0.66 0,-1.32 0,-2 z"
     fill="#b4110a"
     id="path513" />
  <path
     d="m 31,35 c 2,2 2,2 2.125,5.125 C 33.08375,41.07375 33.0425,42.0225 33,43 c -1.98,-0.66 -3.96,-1.32 -6,-2 0,-0.66 0,-1.32 0,-2 1.32,0 2.64,0 4,0 0,-1.32 0,-2.64 0,-4 z"
     fill="#7c1817"
     id="path515" />
  <path
     d="m 128,34 c 0.66,0.33 1.32,0.66 2,1 -1.3125,2.5 -1.3125,2.5 -3,5 -0.99,0 -1.98,0 -3,0 0,0.66 0,1.32 0,2 -0.66,-0.33 -1.32,-0.66 -2,-1 1.98,-2.31 3.96,-4.62 6,-7 z"
     fill="#a51a1a"
     id="path517" />
  <path
     d="m 126,123 c 0,0.99 0,1.98 0,3 -3.465,1.485 -3.465,1.485 -7,3 1.47477,-3.40332 2.85615,-6 7,-6 z"
     fill="#c12c23"
     id="path519" />
  <path
     d="m 77,137 c 0.66,2.64 1.32,5.28 2,8 -0.99,0.495 -0.99,0.495 -2,1 -0.28875,-0.80438 -0.5775,-1.60875 -0.875,-2.4375 C 75.267374,140.86735 75.267374,140.86735 73,140 c 2.875,-3 2.875,-3 4,-3 z"
     fill="#9e211b"
     id="path521" />
  <path
     d="m 124,133 c 0.33,0.66 0.66,1.32 1,2 0.66,0.33 1.32,0.66 2,1 -1.65,1.65 -3.3,3.3 -5,5 -0.20086,-3.71599 -0.15194,-4.77208 2,-8 z"
     fill="#a81717"
     id="path523" />
  <path
     d="m 132,112 c 1.65,1.65 3.3,3.3 5,5 -1.65,0 -3.3,0 -5,0 -0.5625,-1.9375 -0.5625,-1.9375 -1,-4 0.33,-0.33 0.66,-0.66 1,-1 z"
     fill="#a50e07"
     id="path525" />
  <path
     d="m 69,79 c 0.66,0.99 1.32,1.98 2,3 -0.33,0.66 -0.66,1.32 -1,2 -2.0625,0.625 -2.0625,0.625 -4,1 0.375,-2.4375 0.375,-2.4375 1,-5 0.66,-0.33 1.32,-0.66 2,-1 z"
     fill="#de5701"
     id="path527" />
  <path
     d="m 168,68 c 2.64,1.98 5.28,3.96 8,6 -0.66,0.66 -1.32,1.32 -2,2 0,-0.66 0,-1.32 0,-2 -0.99,0 -1.98,0 -3,0 0,-0.66 0,-1.32 0,-2 -0.99,-0.33 -1.98,-0.66 -3,-1 0,-0.99 0,-1.98 0,-3 z"
     fill="#9e2018"
     id="path529" />
  <path
     d="m 180,155 c 0.66,0.66 1.32,1.32 2,2 -0.375,2.125 -0.375,2.125 -1,4 0,-0.66 0,-1.32 0,-2 -1.65,0 -3.3,0 -5,0 0,-0.66 0,-1.32 0,-2 1.32,-0.66 2.64,-1.32 4,-2 z"
     fill="#e15e27"
     id="path531" />
  <path
     d="m 26,114 c 1.32,1.65 2.64,3.3 4,5 -0.99,0.495 -0.99,0.495 -2,1 -0.99,-0.99 -1.98,-1.98 -3,-3 0.33,-0.99 0.66,-1.98 1,-3 z m -3,2 c 0.66,0.33 1.32,0.66 2,1 0,0.66 0,1.32 0,2 -0.99,-0.33 -1.98,-0.66 -3,-1 0.33,-0.66 0.66,-1.32 1,-2 z"
     fill="#9e1b1a"
     id="path533" />
  <path
     d="m 94,78 c 1.98,0 3.96,0 6,0 -0.99,0.495 -0.99,0.495 -2,1 -0.33,0.99 -0.66,1.98 -1,3 -0.99,0 -1.98,0 -3,0 0,-1.32 0,-2.64 0,-4 z"
     fill="#b61f1d"
     id="path535" />
  <path
     d="m 22,69 c 0.103125,0.639375 0.20625,1.27875 0.3125,1.9375 0.226875,0.680625 0.45375,1.36125 0.6875,2.0625 0.99,0.33 1.98,0.66 3,1 0,0.66 0,1.32 0,2 -0.66,0 -1.32,0 -2,0 -0.33,0.66 -0.66,1.32 -1,2 -1.478323,-2.956645 -1.060328,-5.742297 -1,-9 z"
     fill="#5f1716"
     id="path537" />
  <path
     d="m 110,68 c 0.66,0.33 1.32,0.66 2,1 -2.75,6.875 -2.75,6.875 -5,8 0.55729,-3.343735 1.35174,-6.03313 3,-9 z"
     fill="#d32d16"
     id="path539" />
  <path
     d="m 149,52 c 1.98,0.495 1.98,0.495 4,1 -0.33,1.65 -0.66,3.3 -1,5 -1.32,-1.32 -2.64,-2.64 -4,-4 0.33,-0.66 0.66,-1.32 1,-2 z"
     fill="#740f0f"
     id="path541" />
  <path
     d="m 136,35 c 0.66,0.33 1.32,0.66 2,1 0,1.98 0,3.96 0,6 -1.32,-0.66 -2.64,-1.32 -4,-2 0,-0.99 0,-1.98 0,-3 0.66,0 1.32,0 2,0 0,-0.66 0,-1.32 0,-2 z"
     fill="#ac0200"
     id="path543" />
</svg>
